<svg t="1730532415769" class="icon" viewBox="0 0 1024 1024" version="1.1" xmlns="http://www.w3.org/2000/svg" p-id="4256"><path d="M144.596312 838.716946c0 20.34593 16.426166 36.78233 36.772095 36.782329h659.707561c20.34593 0 36.78233-16.4364 36.78233-36.782329V570.934626c0-202.507501-164.118375-366.63611-366.63611-366.63611S144.596312 368.416891 144.596312 570.934626v267.78232z m82.74489-267.78232c0-156.770096 127.121123-283.89122 283.89122-283.89122s283.880985 127.121123 283.880986 283.89122V792.754385H387.099735V596.223757c0-6.324841-5.168357-11.493199-11.493199-11.493199h-50.568027c-6.314607 0-11.493199 5.168357-11.493199 11.493199V792.754385h-86.204108V570.934626zM172.05513 280.728799l45.512248-45.512248c3.561561-3.561561 3.561561-9.425856 0-12.987417l-78.03708-78.03708c-3.561561-3.561561-9.425856-3.561561-12.987417 0L81.030633 189.704303c-3.561561 3.561561-3.561561 9.425856 0 12.987417l78.03708 78.037079c3.571796 3.561561 9.313278 3.561561 12.987417 0z m769.594003-91.024496l-45.512248-45.512249c-3.561561-3.561561-9.425856-3.561561-12.987417 0l-78.03708 78.03708c-3.561561 3.561561-3.561561 9.425856 0 12.987417l45.512248 45.512248c3.561561 3.561561 9.425856 3.561561 12.987417 0l78.03708-78.037079c3.561561-3.684374 3.561561-9.425856 0-12.987417z m-62.634351 759.349397H143.439828c-20.34593 0-36.78233 16.4364-36.78233 36.78233v27.58163c0 5.055779 4.134686 9.190465 9.2007 9.190466h790.72798c5.055779 0 9.190465-4.134686 9.190465-9.190466v-27.58163c0.010234-20.335695-16.426166-36.78233-36.761861-36.78233zM479.045325 130.744091h64.36396c5.055779 0 9.2007-4.14492 9.2007-9.2007V11.206636c0-5.055779-4.14492-9.190465-9.2007-9.190465H479.045325c-5.055779 0-9.190465 4.134686-9.190465 9.190465v110.336755c0 5.055779 4.134686 9.2007 9.190465 9.2007z m0 0" fill="currentColor" p-id="4257"></path></svg>