<svg t="1730460425383" class="icon" viewBox="0 0 1024 1024" version="1.1" xmlns="http://www.w3.org/2000/svg" p-id="1713"><path d="M823.56736 621.312v-16.49152c0-56.92416-46.3104-103.23456-103.23456-103.23456h-188.12416V406.12352h248.00256c45.49632 0 82.5088-37.01248 82.5088-82.50368V202.25024c0-45.49632-37.01248-82.50368-82.5088-82.50368H233.00608c-45.49632 0-82.5088 37.01248-82.5088 82.50368v121.3696c0 45.49632 37.01248 82.50368 82.5088 82.50368h237.76256v95.4624H305.17248c-56.92416 0-103.23456 46.3104-103.23456 103.23456v16.38912h-1.16224c-62.1312 0-112.68096 50.54976-112.68096 112.68096v61.02528c0 62.1312 50.54976 112.68096 112.68096 112.68096h101.22752c62.1312 0 112.68096-50.54976 112.68096-112.68096v-61.02528c0-62.1312-50.54976-112.68096-112.68096-112.68096H263.3728v-16.38912c0-23.04512 18.74944-41.79456 41.79456-41.79456h415.1552c23.04512 0 41.79456 18.74944 41.79456 41.79456v16.38912h-43.7504c-62.1312 0-112.68096 50.54976-112.68096 112.68096v61.02528c0 62.1312 50.54976 112.68096 112.68096 112.68096h101.22752c62.1312 0 112.68096-50.54976 112.68096-112.68096v-61.02528c0.01024-60.8-48.4096-110.48448-108.70784-112.57856zM211.93728 323.61984V202.25024a21.08928 21.08928 0 0 1 21.0688-21.06368h547.20512a21.08928 21.08928 0 0 1 21.0688 21.06368v121.3696a21.08928 21.08928 0 0 1-21.0688 21.06368H233.00608a21.08416 21.08416 0 0 1-21.0688-21.06368z m141.312 410.27072v61.02528c0 28.25728-22.98368 51.24096-51.24096 51.24096H200.7808c-28.25728 0-51.24096-22.98368-51.24096-51.24096v-61.02528c0-28.25728 22.98368-51.24096 51.24096-51.24096h101.22752c28.25728 0 51.24096 22.98368 51.24096 51.24096z m517.59616 61.02528c0 28.25728-22.98368 51.24096-51.24096 51.24096h-101.22752c-28.25728 0-51.24096-22.98368-51.24096-51.24096v-61.02528c0-28.25728 22.98368-51.24096 51.24096-51.24096h101.22752c28.25728 0 51.24096 22.98368 51.24096 51.24096v61.02528z" fill="#333333" p-id="1714" fill="currentColor"></path></svg>