<svg t="1726029223161" class="icon" viewBox="0 0 2048 1024" version="1.1" xmlns="http://www.w3.org/2000/svg" p-id="9979">
<path fill="currentColor" d="M1762.11191302 233.90856933c16.22200012-25.49171448 11.58714294-60.25314331-9.26971435-79.95128631-24.33300019-19.69814301-55.61828614-13.90457153-74.15771484 11.58714295-3.47614289 3.47614289-296.63085938 375.4234314-646.5625763 375.42343139C693.77733355 540.96785737 386.71804552 164.38571167 383.24190264 163.22699737a50.98342896 50.98342896 0 0 0-72.99900055-5.79357146 60.25314331 60.25314331 0 0 0-5.79357146 78.79257201c5.79357148 9.26971435 69.52285766 85.74485779 169.17228698 171.48971558L339.21075946 558.34857177a57.93571472 57.93571472 0 0 0 2.31742859 78.79257203c5.79357148 11.58714294 18.53942872 17.38071443 31.28528595 17.38071442s26.65042878-5.79357148 37.07885742-17.38071442l145.9980011-162.22000122a1008.08143615 1008.08143615 0 0 0 241.01257324 134.41085815l-55.61828613 201.61628724c-8.11100006 31.28528595 8.11100006 62.5705719 37.07885742 70.68157196h16.22200011c23.17428589 0 44.03114318-16.22200012 49.82471467-42.8724289l55.61828614-201.61628723a675.53043366 675.53043366 0 0 0 264.18685912 0L1219.83362323 836.44000244a54.45957185 54.45957185 0 0 0 50.98342896 42.8724289c4.63485718 0 10.42842865 0 12.74585724-3.47614288 28.96785737-8.11100006 46.34857177-39.39628601 37.07885741-70.68157198l-55.61828614-199.29885863A1008.08143615 1008.08143615 0 0 0 1507.19476825 472.60371399l142.52185822 158.74385834c11.58714294 11.58714294 24.33300019 17.38071443 37.07885741 17.38071441s26.65042878-5.79357148 37.07885742-17.38071442c22.0155716-23.17428589 22.0155716-56.77700043 3.47614289-78.79257201l-135.56957245-150.63285828C1699.54134112 315.01856995 1763.27062732 233.90856933 1763.27062732 233.90856933z" p-id="9980">
</path>
</svg>